<svg width="480" height="480" viewBox="0 0 480 480" fill="none" xmlns="http://www.w3.org/2000/svg">
<g clip-path="url(#clip0_314_3978)">
<path d="M396.392 1.88977H82.8406C38.1326 1.88977 1.88965 38.1328 1.88965 82.8407V396.392C1.88965 441.1 38.1326 477.343 82.8406 477.343H396.392C441.1 477.343 477.343 441.1 477.343 396.392V82.8407C477.343 38.1328 441.1 1.88977 396.392 1.88977Z" fill="#CA121F" stroke="white" stroke-width="3.77953"/>
<path d="M341.978 323.458C359.785 329.721 363.021 358.603 335.667 380.389C257.283 442.82 151.684 385.185 151.684 385.185C151.684 385.185 254.513 412.636 303.879 340.441C316.192 322.434 329.177 318.955 341.978 323.458ZM353.038 170.404C364.513 155.449 393.052 161.303 405.373 193.983C440.681 287.63 353.092 369.99 353.092 369.99C353.092 369.99 411.043 280.93 357.458 211.793C344.093 194.548 344.788 181.156 353.038 170.404ZM210.514 112.617C199.799 97.1103 214.201 71.8476 249.17 70.2582C349.375 65.7039 400.842 174.241 400.842 174.241C400.842 174.241 333.829 91.7481 251.345 121.214C230.772 128.563 218.217 123.765 210.514 112.617ZM111.37 229.956C93.2728 235.328 73.6344 213.86 82.925 180.198C109.547 83.7368 228.945 68.4559 228.945 68.4559C228.945 68.4559 129.577 106.532 132.185 193.881C132.835 215.667 124.38 226.094 111.37 229.956ZM192.619 360.263C192.149 379.09 165.61 391.085 136.383 371.87C52.6314 316.808 74.9564 198.827 74.9564 198.827C74.9564 198.827 80.5572 304.852 164.652 329.371C185.627 335.486 192.957 346.728 192.619 360.263Z" fill="white"/>
</g>
<defs>
<clipPath id="clip0_314_3978">
<rect width="479.233" height="479.233" fill="white"/>
</clipPath>
</defs>
</svg>
